<svg width="720" height="480" viewBox="0 0 720 480" fill="none" xmlns="http://www.w3.org/2000/svg">
<g filter="url(#filter0_d_43_272)">
<path d="M366 308.5C367.5 304 375.92 303.545 378 308L391 342C392.5 344 394.537 344.046 398 344H425.94C427.5 344 428.5 343 429 342L441 317C442.173 315.689 442.827 315.636 444 317L454 342C454.825 343.364 455.479 343.807 457 344H461H482C482.789 344.032 482.957 343.758 483 343V339C483.03 338.14 482.758 337.985 482 338.001C477.689 338.005 460.871 338.021 460 338.011C459 338 458.305 337.151 457.762 336C454.988 329.795 446.637 311.235 445 309C443.03 306.311 441.938 306.426 440 309C438.062 311.574 425.172 336.082 425.172 336.082C424.5 337.394 423.907 337.905 422.081 338.011C413.316 338.01 408.062 338 399 338C396.5 338 395.683 337.732 395 335.988L387.081 314C386.192 311.624 386.126 310.687 387.081 309.999L482.127 221.92C484.627 220 482.127 220 482.127 220L382.456 220.017L382.371 220.015C379.936 219.966 378.283 219.932 376.474 221.732C374.738 223.2 346.207 248.91 335.627 260C331.493 263.435 331.725 263.802 332.225 268.5C332.725 273.198 346.554 375.397 347 376L347.008 376.011C347.469 376.634 349.42 379.269 351.5 376L366 308.5Z" fill="#FC8D11"/>
</g>
<g filter="url(#filter1_d_43_272)">
<path d="M366 308.5C367.5 304 375.92 303.545 378 308L391 342C392.5 344 394.537 344.046 398 344H425.94C427.5 344 428.5 343 429 342L441 317C442.173 315.689 442.827 315.636 444 317L454 342C454.825 343.364 455.479 343.807 457 344H461H482C482.789 344.032 482.957 343.758 483 343V339C483.03 338.14 482.758 337.985 482 338.001C477.689 338.005 460.871 338.021 460 338.011C459 338 458.305 337.151 457.762 336C454.988 329.795 446.637 311.235 445 309C443.03 306.311 441.938 306.426 440 309C438.062 311.574 425.172 336.082 425.172 336.082C424.5 337.394 423.907 337.905 422.081 338.011C413.316 338.01 408.062 338 399 338C396.5 338 395.683 337.732 395 335.988L387.081 314C386.192 311.624 386.126 310.687 387.081 309.999L482.127 221.92C484.627 220 482.127 220 482.127 220L382.456 220.017L382.371 220.015C379.936 219.966 378.283 219.932 376.474 221.732C374.738 223.2 346.207 248.91 335.627 260C331.493 263.435 331.725 263.802 332.225 268.5C332.725 273.198 346.554 375.397 347 376L347.008 376.011C347.469 376.634 349.42 379.269 351.5 376L366 308.5Z" fill="url(#paint0_linear_43_272)"/>
</g>
<g filter="url(#filter2_d_43_272)">
<path d="M267.715 322.827C266.548 327.243 265.831 331.936 263.003 335.628C263.003 335.628 262.503 336.695 260.503 337.411C259.631 337.724 256.855 337.635 254.003 337.628C250.317 337.617 246.503 337.628 246.503 337.628L244.503 337.627C243.397 337.594 242.991 337.752 243.003 338.628L243.003 341.628L243.003 438C242.922 439.828 244.503 438 244.503 438L335.003 353.966C336.644 352.648 336.82 351.494 336.345 349C336.345 349 324.364 257.5 322.864 253C321.364 248.5 318 249 317 253C317 253 304.634 339.759 300 346C295.366 352.241 291.522 351.939 287.5 346C283.478 340.061 275 292 275 292C274.499 289.38 272.501 289.204 272 292L267.715 322.827Z" fill="#9F3092"/>
</g>
<g filter="url(#filter3_d_43_272)">
<path d="M267.715 322.827C266.548 327.243 265.831 331.936 263.003 335.628C263.003 335.628 262.503 336.695 260.503 337.411C259.631 337.724 256.855 337.635 254.003 337.628C250.317 337.617 246.503 337.628 246.503 337.628L244.503 337.627C243.397 337.594 242.991 337.752 243.003 338.628L243.003 341.628L243.003 438C242.922 439.828 244.503 438 244.503 438L335.003 353.966C336.644 352.648 336.82 351.494 336.345 349C336.345 349 324.364 257.5 322.864 253C321.364 248.5 318 249 317 253C317 253 304.634 339.759 300 346C295.366 352.241 291.522 351.939 287.5 346C283.478 340.061 275 292 275 292C274.499 289.38 272.501 289.204 272 292L267.715 322.827Z" fill="url(#paint1_linear_43_272)"/>
</g>
<g filter="url(#filter4_d_43_272)">
<path d="M253.364 220.022L251.841 220.031C248.993 219.972 246.91 220.039 244.58 221.81C242.965 223.435 243.055 224.758 243.011 227.019C243.022 227.441 243 228.609 243.011 229.019C243.001 230.435 242.992 231.103 243.011 232.519L243.011 331.019C243.021 331.843 243.276 332.023 244.011 332.019H254.511H257.011C258.011 332.019 260.745 329.451 261.511 326.519C261.511 326.519 265.808 291.963 268.5 286.008C271.192 280.053 275.55 280.027 278 286.008C280.038 290.983 281.465 296.335 282 299.508C282.234 301.03 283.5 301.508 285 300.508C285 300.508 303.5 286.508 305 284.008C306.5 281.508 310 257.008 313 249.008C316 241.008 323 241.008 327 249.008C330.148 255.304 331 256.5 331 256.5C331.595 257.232 331.925 256.652 332.5 256.008C332.5 256.008 335.925 252.563 337.708 250.973C337.708 250.973 365 223.508 367 222.006C369 220.505 370.079 219.912 367 220.01C352.518 219.975 338.102 220.293 323.614 220.26C321.785 220.256 319.957 220.252 318.128 220.248L317.024 220.245C311.116 220.231 305.207 220.208 299.299 220.178C293.215 220.147 287.131 220.125 281.047 220.118C277.298 220.114 273.549 220.105 269.799 220.078C267.206 220.06 264.613 220.05 262.019 220.051C260.813 220.053 259.608 220.054 258.402 220.053L258.389 220.053C256.714 220.035 255.039 220.017 253.364 220.022Z" fill="url(#paint2_linear_43_272)"/>
</g>
<g filter="url(#filter5_d_43_272)">
<path d="M290.045 338.192C292.172 343.026 292.465 343.414 295.107 338.31C297.433 333.815 304 294 304 294C304 294 303.807 292.149 301.5 294C299.193 295.851 287.253 305.68 287.253 305.68C285.711 306.643 285.02 307.049 285.291 308.63C285.82 313.418 288.17 333.93 290.045 338.192Z" fill="#FF0202"/>
</g>
<g filter="url(#filter6_d_43_272)">
<path d="M290.045 338.192C292.172 343.026 292.465 343.414 295.107 338.31C297.433 333.815 304 294 304 294C304 294 303.807 292.149 301.5 294C299.193 295.851 287.253 305.68 287.253 305.68C285.711 306.643 285.02 307.049 285.291 308.63C285.82 313.418 288.17 333.93 290.045 338.192Z" fill="url(#paint3_linear_43_272)"/>
</g>
<g filter="url(#filter7_d_43_272)">
<path d="M356.483 381.969C352.966 386.438 345 385.499 342.483 381.969C339.966 378.438 339 363.999 339 363.999C338.492 362.737 337.012 362.669 336 363.999L248.001 444.247C246 445.999 246 446.999 248.001 446.999C248.001 446.999 476.031 447.004 480.016 447.002C484 447 482.5 446 480.016 443.741C477.531 441.482 412.5 370 412.5 370C411.5 369 407 364 407 361V354C407.102 351.699 406.905 350.071 404.5 350H393.043C391.21 350.049 387.5 348 385.5 345C385 344.5 376.137 315.195 375 313C373.67 310.433 371.5 310 370.5 313C369.5 316 360 377.499 356.483 381.969Z" fill="url(#paint4_linear_43_272)"/>
</g>
<defs>
<filter id="filter0_d_43_272" x="327.957" y="220" width="159.281" height="165.605" filterUnits="userSpaceOnUse" color-interpolation-filters="sRGB">
<feFlood flood-opacity="0" result="BackgroundImageFix"/>
<feColorMatrix in="SourceAlpha" type="matrix" values="0 0 0 0 0 0 0 0 0 0 0 0 0 0 0 0 0 0 127 0" result="hardAlpha"/>
<feOffset dy="4"/>
<feGaussianBlur stdDeviation="2"/>
<feComposite in2="hardAlpha" operator="out"/>
<feColorMatrix type="matrix" values="0 0 0 0 0 0 0 0 0 0 0 0 0 0 0 0 0 0 0.25 0"/>
<feBlend mode="normal" in2="BackgroundImageFix" result="effect1_dropShadow_43_272"/>
<feBlend mode="normal" in="SourceGraphic" in2="effect1_dropShadow_43_272" result="shape"/>
</filter>
<filter id="filter1_d_43_272" x="327.957" y="220" width="159.281" height="165.605" filterUnits="userSpaceOnUse" color-interpolation-filters="sRGB">
<feFlood flood-opacity="0" result="BackgroundImageFix"/>
<feColorMatrix in="SourceAlpha" type="matrix" values="0 0 0 0 0 0 0 0 0 0 0 0 0 0 0 0 0 0 127 0" result="hardAlpha"/>
<feOffset dy="4"/>
<feGaussianBlur stdDeviation="2"/>
<feComposite in2="hardAlpha" operator="out"/>
<feColorMatrix type="matrix" values="0 0 0 0 0 0 0 0 0 0 0 0 0 0 0 0 0 0 0.25 0"/>
<feBlend mode="normal" in2="BackgroundImageFix" result="effect1_dropShadow_43_272"/>
<feBlend mode="normal" in="SourceGraphic" in2="effect1_dropShadow_43_272" result="shape"/>
</filter>
<filter id="filter2_d_43_272" x="239" y="249.81" width="101.574" height="197.002" filterUnits="userSpaceOnUse" color-interpolation-filters="sRGB">
<feFlood flood-opacity="0" result="BackgroundImageFix"/>
<feColorMatrix in="SourceAlpha" type="matrix" values="0 0 0 0 0 0 0 0 0 0 0 0 0 0 0 0 0 0 127 0" result="hardAlpha"/>
<feOffset dy="4"/>
<feGaussianBlur stdDeviation="2"/>
<feComposite in2="hardAlpha" operator="out"/>
<feColorMatrix type="matrix" values="0 0 0 0 0 0 0 0 0 0 0 0 0 0 0 0 0 0 0.25 0"/>
<feBlend mode="normal" in2="BackgroundImageFix" result="effect1_dropShadow_43_272"/>
<feBlend mode="normal" in="SourceGraphic" in2="effect1_dropShadow_43_272" result="shape"/>
</filter>
<filter id="filter3_d_43_272" x="239" y="249.81" width="101.574" height="197.002" filterUnits="userSpaceOnUse" color-interpolation-filters="sRGB">
<feFlood flood-opacity="0" result="BackgroundImageFix"/>
<feColorMatrix in="SourceAlpha" type="matrix" values="0 0 0 0 0 0 0 0 0 0 0 0 0 0 0 0 0 0 127 0" result="hardAlpha"/>
<feOffset dy="4"/>
<feGaussianBlur stdDeviation="2"/>
<feComposite in2="hardAlpha" operator="out"/>
<feColorMatrix type="matrix" values="0 0 0 0 0 0 0 0 0 0 0 0 0 0 0 0 0 0 0.25 0"/>
<feBlend mode="normal" in2="BackgroundImageFix" result="effect1_dropShadow_43_272"/>
<feBlend mode="normal" in="SourceGraphic" in2="effect1_dropShadow_43_272" result="shape"/>
</filter>
<filter id="filter4_d_43_272" x="239" y="220" width="133.926" height="120.019" filterUnits="userSpaceOnUse" color-interpolation-filters="sRGB">
<feFlood flood-opacity="0" result="BackgroundImageFix"/>
<feColorMatrix in="SourceAlpha" type="matrix" values="0 0 0 0 0 0 0 0 0 0 0 0 0 0 0 0 0 0 127 0" result="hardAlpha"/>
<feOffset dy="4"/>
<feGaussianBlur stdDeviation="2"/>
<feComposite in2="hardAlpha" operator="out"/>
<feColorMatrix type="matrix" values="0 0 0 0 0 0 0 0 0 0 0 0 0 0 0 0 0 0 0.25 0"/>
<feBlend mode="normal" in2="BackgroundImageFix" result="effect1_dropShadow_43_272"/>
<feBlend mode="normal" in="SourceGraphic" in2="effect1_dropShadow_43_272" result="shape"/>
</filter>
<filter id="filter5_d_43_272" x="281.233" y="293.177" width="26.7666" height="56.803" filterUnits="userSpaceOnUse" color-interpolation-filters="sRGB">
<feFlood flood-opacity="0" result="BackgroundImageFix"/>
<feColorMatrix in="SourceAlpha" type="matrix" values="0 0 0 0 0 0 0 0 0 0 0 0 0 0 0 0 0 0 127 0" result="hardAlpha"/>
<feOffset dy="4"/>
<feGaussianBlur stdDeviation="2"/>
<feComposite in2="hardAlpha" operator="out"/>
<feColorMatrix type="matrix" values="0 0 0 0 0 0 0 0 0 0 0 0 0 0 0 0 0 0 0.25 0"/>
<feBlend mode="normal" in2="BackgroundImageFix" result="effect1_dropShadow_43_272"/>
<feBlend mode="normal" in="SourceGraphic" in2="effect1_dropShadow_43_272" result="shape"/>
</filter>
<filter id="filter6_d_43_272" x="281.233" y="293.177" width="26.7666" height="56.803" filterUnits="userSpaceOnUse" color-interpolation-filters="sRGB">
<feFlood flood-opacity="0" result="BackgroundImageFix"/>
<feColorMatrix in="SourceAlpha" type="matrix" values="0 0 0 0 0 0 0 0 0 0 0 0 0 0 0 0 0 0 127 0" result="hardAlpha"/>
<feOffset dy="4"/>
<feGaussianBlur stdDeviation="2"/>
<feComposite in2="hardAlpha" operator="out"/>
<feColorMatrix type="matrix" values="0 0 0 0 0 0 0 0 0 0 0 0 0 0 0 0 0 0 0.25 0"/>
<feBlend mode="normal" in2="BackgroundImageFix" result="effect1_dropShadow_43_272"/>
<feBlend mode="normal" in="SourceGraphic" in2="effect1_dropShadow_43_272" result="shape"/>
</filter>
<filter id="filter7_d_43_272" x="242.5" y="310.909" width="243.973" height="144.093" filterUnits="userSpaceOnUse" color-interpolation-filters="sRGB">
<feFlood flood-opacity="0" result="BackgroundImageFix"/>
<feColorMatrix in="SourceAlpha" type="matrix" values="0 0 0 0 0 0 0 0 0 0 0 0 0 0 0 0 0 0 127 0" result="hardAlpha"/>
<feOffset dy="4"/>
<feGaussianBlur stdDeviation="2"/>
<feComposite in2="hardAlpha" operator="out"/>
<feColorMatrix type="matrix" values="0 0 0 0 0 0 0 0 0 0 0 0 0 0 0 0 0 0 0.25 0"/>
<feBlend mode="normal" in2="BackgroundImageFix" result="effect1_dropShadow_43_272"/>
<feBlend mode="normal" in="SourceGraphic" in2="effect1_dropShadow_43_272" result="shape"/>
</filter>
<linearGradient id="paint0_linear_43_272" x1="469.5" y1="224.5" x2="277" y2="380" gradientUnits="userSpaceOnUse">
<stop offset="0.173077" stop-color="#F88909"/>
<stop offset="1" stop-color="#CB5BA7"/>
</linearGradient>
<linearGradient id="paint1_linear_43_272" x1="289.787" y1="249.81" x2="289.787" y2="438.812" gradientUnits="userSpaceOnUse">
<stop stop-color="#EE7F2B"/>
<stop offset="1" stop-color="#CB5BA7"/>
</linearGradient>
<linearGradient id="paint2_linear_43_272" x1="253" y1="291" x2="315.5" y2="236.5" gradientUnits="userSpaceOnUse">
<stop stop-color="#0095D5"/>
<stop offset="1" stop-color="#806EE3"/>
</linearGradient>
<linearGradient id="paint3_linear_43_272" x1="322" y1="259" x2="272" y2="358" gradientUnits="userSpaceOnUse">
<stop stop-color="#F88909"/>
<stop offset="1" stop-color="#D2628F"/>
</linearGradient>
<linearGradient id="paint4_linear_43_272" x1="303" y1="415.5" x2="416" y2="415" gradientUnits="userSpaceOnUse">
<stop offset="0.0220575" stop-color="#0891D6"/>
<stop offset="0.997221" stop-color="#786FE2"/>
</linearGradient>
</defs>
</svg>
